<svg width="25" height="25" viewBox="0 0 25 25" fill="none" xmlns="http://www.w3.org/2000/svg">
<g clip-path="url(#clip0_1_1082)">
<path d="M12.5 3.482C15.437 3.482 15.785 3.493 16.945 3.546C17.6424 3.55442 18.3331 3.68262 18.987 3.925C19.4649 4.10135 19.8971 4.38258 20.252 4.748C20.6174 5.10286 20.8987 5.53513 21.075 6.013C21.3174 6.66693 21.4456 7.35765 21.454 8.055C21.507 9.215 21.518 9.563 21.518 12.5C21.518 15.437 21.507 15.785 21.454 16.945C21.4456 17.6424 21.3174 18.3331 21.075 18.987C20.892 19.4615 20.6117 19.8924 20.252 20.252C19.8924 20.6117 19.4615 20.892 18.987 21.075C18.3331 21.3174 17.6424 21.4456 16.945 21.454C15.785 21.507 15.437 21.518 12.5 21.518C9.563 21.518 9.215 21.507 8.055 21.454C7.35731 21.4457 6.66624 21.3175 6.012 21.075C5.53449 20.8985 5.10258 20.6173 4.748 20.252C4.38258 19.8971 4.10135 19.4649 3.925 18.987C3.68262 18.3331 3.55442 17.6424 3.546 16.945C3.493 15.785 3.482 15.437 3.482 12.5C3.482 9.563 3.493 9.215 3.546 8.055C3.55442 7.35765 3.68262 6.66693 3.925 6.013C4.10135 5.53513 4.38258 5.10286 4.748 4.748C5.10286 4.38258 5.53513 4.10135 6.013 3.925C6.66693 3.68262 7.35765 3.55442 8.055 3.546C9.215 3.493 9.563 3.482 12.5 3.482ZM12.5 1.5C9.513 1.5 9.138 1.513 7.965 1.566C7.05252 1.5842 6.14972 1.75699 5.295 2.077C4.56067 2.35348 3.89552 2.7869 3.346 3.347C2.78638 3.89633 2.35331 4.56111 2.077 5.295C1.75733 6.14978 1.58488 7.05257 1.567 7.965C1.512 9.138 1.5 9.513 1.5 12.5C1.5 15.487 1.513 15.862 1.566 17.035C1.5842 17.9475 1.75699 18.8503 2.077 19.705C2.35348 20.4393 2.7869 21.1045 3.347 21.654C3.89633 22.2136 4.56111 22.6467 5.295 22.923C6.14978 23.2427 7.05257 23.4151 7.965 23.433C9.138 23.488 9.513 23.5 12.5 23.5C15.487 23.5 15.862 23.487 17.035 23.434C17.9475 23.4158 18.8503 23.243 19.705 22.923C20.436 22.6404 21.0998 22.2081 21.654 21.654C22.2081 21.0998 22.6404 20.436 22.923 19.705C23.2427 18.8502 23.4151 17.9474 23.433 17.035C23.488 15.862 23.5 15.487 23.5 12.5C23.5 9.513 23.487 9.138 23.434 7.965C23.4158 7.05252 23.243 6.14972 22.923 5.295C22.6465 4.56067 22.2131 3.89552 21.653 3.346C21.1037 2.78638 20.4389 2.35331 19.705 2.077C18.8502 1.75733 17.9474 1.58488 17.035 1.567C15.862 1.512 15.487 1.5 12.5 1.5ZM12.5 6.851C11.3827 6.851 10.2906 7.18231 9.36158 7.80303C8.43261 8.42375 7.70856 9.306 7.281 10.3382C6.85345 11.3704 6.74158 12.5063 6.95954 13.6021C7.17751 14.6979 7.71553 15.7044 8.50555 16.4944C9.29558 17.2845 10.3021 17.8225 11.3979 18.0405C12.4937 18.2584 13.6296 18.1466 14.6618 17.719C15.694 17.2914 16.5763 16.5674 17.197 15.6384C17.8177 14.7094 18.149 13.6173 18.149 12.5C18.149 11.0018 17.5538 9.56495 16.4944 8.50555C15.4351 7.44616 13.9982 6.851 12.5 6.851ZM12.5 16.167C11.7747 16.167 11.0658 15.9519 10.4627 15.549C9.85969 15.1461 9.38968 14.5734 9.11213 13.9033C8.83459 13.2332 8.76197 12.4959 8.90346 11.7846C9.04495 11.0733 9.3942 10.4199 9.90704 9.90704C10.4199 9.3942 11.0733 9.04495 11.7846 8.90346C12.4959 8.76197 13.2332 8.83459 13.9033 9.11213C14.5734 9.38968 15.1461 9.85969 15.549 10.4627C15.9519 11.0658 16.167 11.7747 16.167 12.5C16.167 13.4725 15.7807 14.4053 15.093 15.093C14.4053 15.7807 13.4725 16.167 12.5 16.167ZM18.372 5.308C18.1109 5.308 17.8557 5.38542 17.6386 5.53046C17.4216 5.6755 17.2524 5.88166 17.1525 6.12286C17.0526 6.36406 17.0264 6.62946 17.0774 6.88552C17.1283 7.14157 17.254 7.37678 17.4386 7.56138C17.6232 7.74599 17.8584 7.8717 18.1145 7.92264C18.3705 7.97357 18.6359 7.94743 18.8771 7.84752C19.1183 7.74761 19.3245 7.57843 19.4695 7.36135C19.6146 7.14428 19.692 6.88907 19.692 6.628C19.692 6.27791 19.5529 5.94217 19.3054 5.69462C19.0578 5.44707 18.7221 5.308 18.372 5.308Z" fill="#262626"/>
</g>
<defs>
<clipPath id="clip0_1_1082">
<rect width="24" height="24" fill="white" transform="translate(0.5 0.5)"/>
</clipPath>
</defs>
</svg>
