<svg width="322" height="109" viewBox="0 0 322 109" fill="none" xmlns="http://www.w3.org/2000/svg">
<path fill-rule="evenodd" clip-rule="evenodd" d="M23.7469 8.61535C17.5127 11.4418 10.6446 19.356 8.42571 29.1922C5.67847 41.7419 17.0901 47.0557 18.0411 45.3598C19.0977 43.3247 16.0335 42.6463 15.2938 36.0889C14.5542 27.7225 18.2524 18.2254 22.7959 14.1553C23.6412 13.3639 23.6412 14.4945 23.6412 16.4165L23.4299 58.3616C23.4299 67.2934 23.1129 70.1199 22.4789 72.9464C21.8449 75.7728 20.894 77.6949 21.6336 78.4863C22.4789 79.2777 26.1771 77.3557 28.2904 74.19C30.7207 70.2329 31.9886 65.5975 31.8829 60.962C32.0943 54.9698 32.0943 45.4728 32.0943 40.159C32.0943 35.1844 32.1999 20.7127 31.9886 12.0071C31.8829 9.63289 26.3885 7.3717 23.7469 8.61535ZM246.168 50.5605C246.062 54.2915 245.323 58.0225 243.738 61.4143C241.413 66.3889 236.658 67.9717 234.545 60.7359C233.488 56.8919 233.383 50.3344 234.228 44.9075C235.073 39.3676 237.292 35.1844 241.096 35.5236C244.9 35.9758 246.591 41.0635 246.168 50.5605ZM183.51 79.5038C183.404 87.1919 182.347 93.9755 179.917 96.0105C176.43 98.837 171.781 96.6889 172.732 91.0359C173.577 86.0613 177.593 80.9736 183.615 74.6423L183.51 79.5038ZM182.559 50.4475C182.453 54.1784 181.608 57.9094 180.128 61.4143C177.804 66.3889 172.943 67.9717 170.936 60.7359C169.562 55.8743 169.879 49.543 170.619 45.4728C171.464 40.2721 173.683 35.5236 177.487 35.5236C181.185 35.6366 183.087 39.9329 182.559 50.4475ZM146.211 50.4475C146.105 54.2915 145.365 58.0225 143.886 61.4143C141.456 66.3889 136.807 67.8587 134.693 60.7359C133.214 55.6482 133.742 48.5254 134.376 44.7945C135.327 39.1415 137.652 35.1844 141.244 35.5236C144.943 35.9758 146.739 41.0635 146.211 50.4475ZM312.63 55.6482C311.785 55.6482 311.257 56.6657 310.94 58.3616C309.777 64.2407 308.509 65.5975 306.924 65.5975C305.128 65.5975 303.543 62.6579 303.12 56.8919C302.803 52.2564 302.803 43.89 303.332 35.5236C303.437 33.8277 302.909 32.1318 298.683 30.4359C296.886 29.7575 294.139 28.6269 292.765 32.1318C290.124 38.8023 288.222 45.699 287.165 52.8217C287.165 53.0478 286.954 53.0478 286.848 52.5956C286.637 50.1083 286.109 45.4728 286.109 35.8628C286.109 33.9407 285.686 32.3579 283.784 31.1142C282.516 30.2098 278.712 28.74 277.233 30.5489C276.071 32.0187 274.697 35.9758 273.218 40.6113L271.21 46.9426V32.8101C271.21 31.3404 270.259 30.8881 269.942 30.7751C268.357 30.2098 266.772 29.8706 265.082 29.7575C263.814 29.7575 263.497 30.5489 263.497 31.6795C263.497 31.7926 263.285 45.1337 263.285 54.5176V55.7613C262.546 60.0575 260.221 65.8236 257.58 65.8236C255.044 65.8236 253.776 63.3363 253.776 52.2564C253.776 45.812 253.987 42.9855 254.093 38.237C254.198 35.5236 254.304 33.4885 254.304 33.0363C254.304 31.5665 251.979 30.8881 250.817 30.5489C249.761 30.3228 248.81 30.2098 248.07 30.2098C247.013 30.3228 246.274 31.0012 246.274 32.0187V33.6016C245.111 31.6795 243.315 30.0967 241.307 29.3053C237.398 28.0616 233.383 29.1922 230.319 33.7146C227.677 37.7848 226.092 42.5333 225.775 47.3948C225.352 51.6911 225.458 56.1004 226.198 59.8314C225.352 64.0146 223.556 65.7105 221.76 65.7105C219.118 65.7105 217.111 60.962 217.322 52.9348C217.533 47.621 218.484 43.89 219.541 38.4631C219.964 36.0889 219.647 34.9583 218.696 33.8277C217.85 32.8101 215.948 32.2448 213.307 32.9232C211.405 33.3754 208.658 33.9407 206.227 34.2799C206.227 34.2799 206.333 33.7146 206.544 32.584C207.178 26.7049 201.155 27.1572 199.254 29.0792C198.091 30.2098 197.352 31.5665 197.035 33.9407C196.612 37.6717 199.465 39.4807 199.465 39.4807C197.563 47.0557 194.499 54.0654 190.272 60.3967V58.3616C190.272 48.6385 190.378 40.9504 190.378 38.237C190.483 35.5236 190.589 33.4885 190.589 33.0363C190.589 32.0187 189.955 31.5665 188.793 31.1142C187.736 30.662 186.468 30.3228 185.2 30.2098C183.615 30.0967 182.559 31.0012 182.559 32.1318V33.6016C181.396 31.5665 179.6 30.0967 177.593 29.3053C173.683 28.0616 169.668 29.1922 166.604 33.7146C164.068 37.7848 162.483 42.5333 162.06 47.3948C161.637 51.9172 161.743 55.7613 162.271 59.1531C161.637 62.4318 159.841 65.8236 157.834 65.8236C155.298 65.8236 153.818 63.4493 153.818 52.2564C153.818 45.812 154.03 42.9855 154.135 38.237C154.241 35.5236 154.347 33.4885 154.347 33.0363C154.347 31.5665 152.022 30.8881 150.86 30.5489C149.697 30.2098 148.746 30.2098 148.007 30.2098C147.056 30.3228 146.316 31.2273 146.316 31.9057V33.4885C145.154 31.4534 143.358 29.9836 141.35 29.1922C137.441 27.9486 133.425 29.0792 130.361 33.6016C128.353 36.5411 126.663 39.9329 125.818 47.1687C125.606 49.0907 125.501 51.1258 125.501 53.0478C124.655 58.2486 121.168 64.3538 118.21 64.3538C116.519 64.3538 114.829 60.849 114.829 53.387C114.829 43.4378 115.463 29.1922 115.463 27.8355L119.9 27.7225C121.697 27.7225 123.387 27.7225 125.818 27.6094C127.086 27.4963 128.248 22.8609 126.98 22.2956C126.452 22.0695 122.331 21.8433 120.746 21.7303C119.372 21.7303 115.674 21.3911 115.674 21.3911C115.674 21.3911 115.991 11.8941 116.097 10.9896C116.202 10.0851 115.146 9.74595 114.512 9.40677C113.138 8.84147 111.764 8.38923 110.391 8.16311C108.383 7.71087 107.432 8.16311 107.221 9.97207C106.904 12.7986 106.798 21.0519 106.798 21.0519C105.319 21.0519 100.141 20.7127 98.6621 20.7127C97.2885 20.7127 95.7035 27.1572 97.7111 27.2702L106.376 27.4963L106.27 46.7165V48.0732C104.896 55.9874 99.9301 60.2837 99.9301 60.2837C100.987 55.0829 98.7678 51.1258 94.8582 47.8471C93.3789 46.6034 90.526 44.3422 87.2505 41.7419C87.2505 41.7419 89.1524 39.8198 90.7374 35.8628C91.8997 33.0363 92.0053 29.8706 89.0468 29.1922C84.2919 27.9486 80.3824 31.6795 79.2201 35.7497C78.2691 38.3501 78.7974 41.4027 80.5937 43.4378L81.0163 44.0031C79.9597 46.1512 78.4804 49.2038 77.2125 51.465C73.7256 57.7963 71.1897 62.884 69.1821 62.884C67.5971 62.884 67.5971 57.7963 67.5971 52.9348C67.5971 48.7516 67.9141 42.5333 68.1254 36.0889C68.2311 33.9407 67.1745 32.6971 65.4839 31.6795C64.1102 30.662 62.631 29.9836 61.046 29.6445C59.1441 29.6445 53.7552 29.9836 48.5777 45.812C47.9438 47.8471 46.6758 51.465 46.6758 51.465L46.7815 32.471C46.7815 32.0187 46.5701 31.5665 46.0418 31.3404C44.4569 30.4359 42.6606 29.8706 40.8643 29.7575C39.9134 29.7575 39.385 30.2098 39.385 31.2273L39.1737 61.0751C39.1737 63.3363 39.2794 65.9366 39.4907 67.1803C39.702 68.3109 40.019 69.2154 40.4417 69.7807C40.8643 70.346 41.287 70.7982 42.1323 70.9113C42.8719 71.1374 46.9928 71.5896 47.2041 70.0068C47.5211 67.9717 47.5211 65.8236 49.6344 57.7963C52.9099 45.3598 57.2421 39.1415 59.3554 36.9934C59.6724 36.5411 60.095 36.5411 60.095 37.2195L59.4611 52.5956C58.9327 68.1978 61.5743 71.0243 65.3782 71.0243C68.2311 71.0243 72.352 67.9717 76.7898 60.1706L84.0806 47.1687L88.4128 51.3519C91.8997 54.8568 93.062 58.1355 92.2166 61.3012C91.6883 63.6755 89.4694 66.2758 85.5599 63.7885C84.3976 63.1101 83.9749 62.5449 82.8126 61.7534C82.1786 61.3012 81.2277 61.1881 80.6994 61.6404C79.2201 62.771 78.3748 64.3538 77.9521 66.1628C77.5295 67.9717 79.2201 68.8762 80.9107 69.6676C82.39 70.346 85.6655 71.0243 87.6731 71.1374C95.7035 71.4766 102.043 67.0672 106.481 55.6482C107.326 65.4844 110.708 71.0243 116.519 71.0243C120.429 71.0243 124.444 65.5975 126.135 60.2837C126.663 62.4318 127.403 64.3538 128.353 65.9366C132.897 73.6247 141.667 71.9288 146.105 65.3713C147.479 63.3363 147.69 62.6579 147.69 62.6579C148.007 67.1803 151.388 70.7982 155.615 71.0243C158.573 71.0243 161.637 69.5546 163.856 64.3538C164.068 64.9191 164.385 65.4844 164.702 65.9366C169.245 73.6247 178.015 71.9288 182.453 65.3713L182.981 64.5799L183.087 68.6501L179.072 72.6072C172.204 79.2777 167.026 84.3654 166.709 90.2445C166.181 97.8195 171.887 100.533 176.219 100.985C180.657 101.211 184.778 98.837 187.208 94.8799C189.321 91.6012 190.695 84.3654 190.589 77.2426L190.378 66.9542C196.823 58.9269 201.895 49.656 205.065 39.5937C205.065 39.5937 207.601 39.5937 210.242 39.4807C211.088 39.3676 211.405 39.5937 211.193 40.2721C210.982 41.0635 207.812 54.2915 210.771 63.1102C212.778 69.1023 217.322 71.0243 219.964 71.0243C223.028 71.0243 226.092 68.537 227.677 64.693L228.311 65.9366C232.854 73.6247 241.624 71.9288 246.062 65.3713C247.013 63.9016 247.647 62.6579 247.647 62.6579C248.598 68.9893 253.247 71.0243 255.889 71.0243C258.636 71.0243 261.278 69.7807 263.391 64.4669C263.497 66.8411 263.602 68.7631 263.814 69.4415C263.919 69.7807 264.765 70.346 265.293 70.459C267.829 71.4766 270.365 71.0243 271.316 70.7982C271.95 70.6852 272.478 70.1199 272.584 68.6501C272.795 64.806 272.689 58.3616 273.746 53.5001C275.542 45.3598 277.233 42.3072 278.078 40.7243C278.501 39.8198 279.029 39.7068 279.029 40.6113C279.029 42.4202 279.135 47.9601 279.875 55.196C280.403 60.6228 281.143 63.7885 281.671 64.806C283.256 67.7456 285.158 67.8587 286.637 67.8587C287.588 67.8587 289.701 67.5195 289.49 65.7105C289.384 64.8061 289.596 59.2661 291.392 51.3519C292.554 46.1512 294.456 41.5157 295.196 39.7068C295.513 39.1415 295.618 39.5937 295.618 39.7068C295.407 43.2116 295.09 54.9699 296.464 61.3012C298.26 69.8937 303.649 70.9113 305.551 70.9113C309.566 70.9113 312.736 67.6325 313.898 59.1531C314.215 57.231 313.792 55.6482 312.63 55.6482Z" fill="#262626"/>
</svg>
